<svg width="28" height="23" viewBox="0 0 28 23" fill="none" xmlns="http://www.w3.org/2000/svg">
<path fill-rule="evenodd" clip-rule="evenodd" d="M14.0001 23C13.6454 23 13.3067 22.86 13.0561 22.608L2.70006 12.2347C-0.0146042 9.51468 -0.0146042 5.08934 2.70006 2.36934C4.01073 1.05734 5.7614 0.333344 7.62673 0.333344C9.49206 0.333344 11.2427 1.05734 12.5534 2.36934L14.0001 3.81868L15.4454 2.37068C16.7574 1.05734 18.5081 0.333344 20.3734 0.333344C22.2387 0.333344 23.9894 1.05734 25.3001 2.36934C28.0147 5.08934 28.0147 9.51468 25.3014 12.2347L14.9441 22.6093C14.6934 22.86 14.3547 23 14.0001 23Z" fill="#FB6157"/>
</svg>
