<svg width="35" height="24" viewBox="0 0 35 24" fill="none" xmlns="http://www.w3.org/2000/svg">
<path opacity="0.5" d="M8.50136 23.9626C6.44609 24.1495 4.67108 23.6357 3.17633 22.4212C1.77501 21.1133 0.840794 19.4317 0.373686 17.3764C0 15.6014 -0.0934216 13.7797 0.0934216 11.9112C0.373686 9.9494 0.980927 8.17439 1.91514 6.58622C2.94278 4.90463 4.3441 3.4566 6.11911 2.24212C7.89412 1.02764 10.1362 0.280265 12.8455 0L13.8264 3.50331C12.4251 3.87699 10.9303 4.53095 9.34216 5.46516C7.75399 6.39938 6.72635 7.98754 6.25925 10.2297L8.36123 9.80926C10.5099 9.71584 12.3316 10.3231 13.8264 11.631C15.4146 12.9389 16.2086 14.5738 16.2086 16.5356C16.2086 18.4975 15.4613 20.2258 13.9665 21.7205C12.4718 23.1218 10.6501 23.8692 8.50136 23.9626ZM26.9988 23.9626C24.8501 24.1495 23.0751 23.6357 21.6738 22.4212C20.2725 21.1133 19.3383 19.4317 18.8712 17.3764C18.4041 15.6014 18.3106 13.7797 18.5909 11.9112C18.8712 9.9494 19.4784 8.17439 20.4126 6.58622C21.4403 4.90463 22.8416 3.4566 24.6166 2.24212C26.3916 1.02764 28.587 0.280265 31.2028 0L32.3239 3.50331C30.9225 3.87699 29.3811 4.53095 27.6995 5.46516C26.1113 6.39938 25.0837 7.98754 24.6166 10.2297C24.9903 10.1362 25.3172 10.0895 25.5975 10.0895C25.9712 9.99611 26.3916 9.90269 26.8587 9.80926C29.0074 9.71584 30.8291 10.3231 32.3239 11.631C33.8186 12.9389 34.566 14.5738 34.566 16.5356C34.566 18.4975 33.8186 20.2258 32.3239 21.7205C30.9225 23.1218 29.1475 23.8692 26.9988 23.9626Z" fill="#C4C4C4"/>
</svg>
