<svg width="23" height="32" viewBox="0 0 23 32" fill="none" xmlns="http://www.w3.org/2000/svg">
<path d="M18.7952 17.1096H0.851716L11.3391 0L21.8265 17.1096H18.7952ZM0.362793 20.7026H22.3154C22.3154 20.7759 22.3154 20.8492 22.3154 20.9225C22.3154 22.1447 22.1199 23.2934 21.7532 24.3933H0.925054C0.558362 23.2934 0.362793 22.1202 0.362793 20.9225C0.362793 20.8492 0.362793 20.7759 0.362793 20.7026ZM2.95408 27.9864L19.7241 28.0108C17.6707 30.5283 14.5904 31.9949 11.3391 31.9949C8.08777 31.9704 5.00756 30.5039 2.95408 27.9864ZM7.18327 13.5654H15.5194L11.3636 6.7705L7.18327 13.5654Z" fill="white"/>
</svg>
