<svg width="157" height="42" viewBox="0 0 157 42" fill="none" xmlns="http://www.w3.org/2000/svg">
<path d="M102.498 39.5875H97.7978L96.7978 41.7872H95.4978L99.4978 32.9886H100.698L104.698 41.7872H103.398L102.498 39.5875ZM95.0978 32.9886L92.1978 41.7872H90.7978L88.3978 34.7883L85.9978 41.7872H84.5978L81.6978 32.9886H82.9978L85.3978 40.1874L87.8978 32.9886H89.0978L91.4978 40.1874L93.8978 32.9886H95.0978ZM155.198 41.7872L152.598 38.1877L149.998 41.7872H148.598L151.898 37.2879L148.698 32.9886H150.098L152.598 36.388L155.098 32.9886H156.498L153.398 37.2879L156.698 41.7872H155.198ZM145.298 32.9886H146.598V41.7872H145.298V32.9886ZM140.898 41.7872V35.3882L137.698 40.6874H137.098L133.898 35.3882V41.7872H132.698V32.9886H133.698L137.398 39.1876L141.098 32.9886H142.098V41.7872H140.898ZM128.898 41.7872L126.998 39.0876C126.798 39.0876 126.598 39.0876 126.398 39.0876H124.198V41.7872H122.898V32.9886H126.298C127.398 32.9886 128.298 33.2885 128.998 33.7884C129.698 34.2884 129.998 35.0882 129.998 36.0881C129.998 36.788 129.798 37.3879 129.498 37.7878C129.198 38.2877 128.698 38.5877 128.098 38.7877L130.198 41.7872H128.898ZM126.398 38.0878C127.198 38.0878 127.798 37.8878 128.198 37.5878C128.598 37.2879 128.798 36.788 128.798 36.0881C128.798 35.4882 128.598 34.9883 128.198 34.5883C127.798 34.2884 127.198 34.0884 126.398 34.0884H124.298V38.0878H126.398ZM120.498 40.6874V41.7872H114.098V32.9886H120.298V34.0884H115.298V36.788H119.698V37.8878H115.298V40.6874H120.498ZM107.898 34.0884H104.898V32.9886H112.198V34.0884H109.198V41.7872H107.998V34.0884H107.898ZM101.998 38.5877L100.098 34.2884L98.1978 38.5877H101.998Z" fill="#C4C4C4"/>
<path fill-rule="evenodd" clip-rule="evenodd" d="M150.209 18.9908H138.209L135.698 24.7806H131.86C135.419 16.9679 138.977 9.08539 142.535 1.27268H146.023C149.581 9.08539 153.14 16.9679 156.698 24.7806H152.791L150.209 18.9908ZM90.4884 0.993652H90.3488C89.1628 0.993652 88.1163 1.13317 87 1.41219C85.9535 1.69122 84.907 2.04 84 2.59805C83.0233 3.08634 82.186 3.71415 81.4186 4.48147C80.6512 5.17904 80.0233 6.01611 79.4651 6.92295C78.907 7.82978 78.4884 8.80637 78.2093 9.85271C77.9302 10.8991 77.7907 11.9454 77.7907 13.0615V13.1313V13.3405H81.4884V13.0615C81.4884 12.2244 81.5581 11.4571 81.7674 10.6898C81.9767 9.92247 82.2558 9.22491 82.6047 8.5971C82.9535 7.96929 83.4419 7.34148 84 6.85319C84.5581 6.36489 85.1163 5.8766 85.8139 5.52782C86.5116 5.17904 87.2093 4.90001 87.9767 4.69074C88.7442 4.48147 89.5116 4.41172 90.3488 4.41172C91.186 4.41172 91.9535 4.48147 92.7209 4.69074C93.4884 4.90001 94.186 5.17904 94.8139 5.52782C95.4419 5.8766 96.0698 6.36489 96.5581 6.85319C97.0465 7.34148 97.5349 7.96929 97.8837 8.5971C98.6512 9.92247 99 11.3874 99 13.0615V13.3405H102.698V13.0615C102.698 11.9454 102.558 10.8293 102.279 9.78296C102 8.73661 101.581 7.76002 101.093 6.85319C100.535 5.94636 99.907 5.10928 99.1395 4.41172C98.3721 3.71415 97.5349 3.08634 96.6279 2.52829C95.6512 2.04 94.6744 1.62146 93.6279 1.34243C92.7209 1.13317 91.6046 0.993652 90.4884 0.993652ZM18.4186 18.9908H6.34884L3.83721 24.7806H0C3.55814 16.8981 7.11628 9.08539 10.6744 1.27268H14.1628C17.7209 9.08539 21.2791 16.9679 24.8372 24.7806H20.9302L18.4186 18.9908ZM17.093 15.9215L12.4186 5.31855L7.67442 15.9215H17.093ZM49.2558 1.5517L39.0698 24.7806H35.5814L25.2558 1.27268H29.2326L37.3953 19.9674L45.6977 1.27268H49.3953L49.2558 1.5517ZM69.2791 24.6411L64.3256 17.6654C64.0465 17.6654 63.8372 17.6654 63.6279 17.7352C63.3488 17.7352 63.1395 17.7352 63 17.7352H57.4884V24.7806H53.7907V1.27268H63C64.5349 1.27268 65.8605 1.48195 67.0465 1.83073C68.2326 2.17951 69.2791 2.73756 70.186 3.50488C71.093 4.2722 71.7209 5.10928 72.1395 6.15562C72.5581 7.13221 72.7674 8.31807 72.7674 9.57369C72.7674 10.4805 72.6279 11.3176 72.4186 12.0849C72.2093 12.8522 71.8605 13.5498 71.3721 14.2474C70.9535 14.8752 70.3953 15.4332 69.6977 15.9215C69.1395 16.3401 68.4419 16.6888 67.7442 16.9679L73.3256 24.8503H69.2791V24.6411ZM62.9302 14.5264C63.9767 14.5264 64.8837 14.3869 65.6512 14.1776C66.4186 13.9683 67.0465 13.6196 67.6047 13.201C68.1628 12.7825 68.5116 12.2244 68.7907 11.6664C69.0698 11.0386 69.2093 10.341 69.2093 9.50393C69.2093 7.89953 68.6512 6.64392 67.6047 5.80684C67.0465 5.3883 66.4186 5.03952 65.6512 4.83025C64.8837 4.62098 63.9767 4.48147 62.9302 4.48147H57.4884V14.4566H62.9302V14.5264ZM90.4186 24.9898C88.0465 24.9898 85.9535 24.5016 84 23.4552C83.6512 23.2459 83.2326 23.0367 82.8837 22.7576C82.5349 22.5484 82.186 22.2694 81.907 21.9903L81.4884 21.6415H99.2093L98.7907 21.9903C98.5116 22.2694 98.1628 22.4786 97.8139 22.7576C97.4651 22.9669 97.1163 23.2459 96.6977 23.4552C95.7209 23.9435 94.7442 24.362 93.6977 24.6411C92.6512 24.9201 91.5349 24.9898 90.4186 24.9898ZM79.4651 19.0606C78.907 18.1537 78.4884 17.1074 78.2791 16.061L78.2093 15.782H82.0465L82.1163 15.9215C82.186 16.2005 82.3256 16.4098 82.3953 16.6888C82.5349 16.9679 82.6046 17.1771 82.7442 17.4562C82.8837 17.6654 83.0233 17.9445 83.2326 18.1537C83.3721 18.363 83.5814 18.5723 83.7209 18.7815L84 19.1303H79.5349L79.4651 19.0606ZM102.488 16.061C102.349 16.6191 102.209 17.1074 102 17.5957C101.791 18.084 101.581 18.5723 101.302 19.0606L101.233 19.1303H96.6977L96.9767 18.7815C97.186 18.5723 97.3256 18.363 97.4651 18.1537C97.6046 17.9445 97.8139 17.6654 97.9535 17.4562C98.093 17.2469 98.2326 16.9679 98.3023 16.6888C98.4419 16.4098 98.5116 16.2005 98.5814 15.9215L98.6512 15.782H102.488V16.061ZM124.953 24.6411L120 17.6654C119.721 17.6654 119.512 17.6654 119.302 17.7352C119.023 17.7352 118.814 17.7352 118.674 17.7352H113.163V24.7806H109.465V1.27268H118.674C120.209 1.27268 121.535 1.48195 122.721 1.83073C123.907 2.17951 124.953 2.73756 125.86 3.50488C126.767 4.2722 127.395 5.10928 127.814 6.15562C128.233 7.13221 128.442 8.31807 128.442 9.57369C128.442 10.4805 128.302 11.3176 128.093 12.0849C127.884 12.8522 127.535 13.5498 127.047 14.2474C126.628 14.8752 126.07 15.4332 125.372 15.9215C124.814 16.3401 124.116 16.6888 123.419 16.9679L129 24.8503H124.953V24.6411ZM118.605 14.5264C119.651 14.5264 120.558 14.3869 121.326 14.1776C122.093 13.9683 122.721 13.6196 123.279 13.201C123.837 12.7825 124.186 12.2244 124.465 11.6664C124.744 11.0386 124.884 10.341 124.884 9.50393C124.884 7.89953 124.326 6.64392 123.279 5.80684C122.721 5.3883 122.093 5.03952 121.326 4.83025C120.558 4.62098 119.651 4.48147 118.605 4.48147H113.163V14.4566H118.605V14.5264ZM148.884 15.9215L144.209 5.31855L139.535 15.9215H148.884Z" fill="white"/>
</svg>
