<svg width="23" height="33" viewBox="0 0 23 33" fill="none" xmlns="http://www.w3.org/2000/svg">
<path d="M18.7952 17.5892H0.851716L11.3391 0.479614L21.8265 17.5892H18.7952ZM0.362793 21.1822H22.3154C22.3154 21.2555 22.3154 21.3288 22.3154 21.4022C22.3154 22.6243 22.1199 23.7731 21.7532 24.873H0.925054C0.558362 23.7731 0.362793 22.5998 0.362793 21.4022C0.362793 21.3288 0.362793 21.2555 0.362793 21.1822ZM2.95408 28.466L19.7241 28.4904C17.6707 31.008 14.5904 32.4745 11.3391 32.4745C8.08777 32.45 5.00756 30.9835 2.95408 28.466ZM7.18327 14.0451H15.5194L11.3636 7.25011L7.18327 14.0451Z" fill="#FB6157"/>
</svg>
