<svg width="109" height="29" viewBox="0 0 109 29" fill="none" xmlns="http://www.w3.org/2000/svg">
<path d="M42.7901 27.463H39.5398L38.8482 28.9842H37.9492L40.7154 22.8995H41.5453L44.3115 28.9842H43.4125L42.7901 27.463ZM37.6726 22.8995L35.6671 28.9842H34.6989L33.0392 24.1441L31.3794 28.9842H30.4113L28.4058 22.8995H29.3048L30.9645 27.8779L32.6934 22.8995H33.5233L35.183 27.8779L36.8427 22.8995H37.6726ZM79.235 28.9842L77.437 26.495L75.6389 28.9842H74.6708L76.9529 25.8727L74.7399 22.8995H75.7081L77.437 25.2504L79.1659 22.8995H80.134L77.9902 25.8727L80.2724 28.9842H79.235ZM72.3886 22.8995H73.2877V28.9842H72.3886V22.8995ZM69.3458 28.9842V24.559L67.1328 28.2236H66.7179L64.5049 24.559V28.9842H63.675V22.8995H64.3666L66.9254 27.1865L69.4841 22.8995H70.1757V28.9842H69.3458ZM61.0471 28.9842L59.7332 27.1173C59.5949 27.1173 59.4566 27.1173 59.3183 27.1173H57.7968V28.9842H56.8978V22.8995H59.2491C60.0098 22.8995 60.6322 23.1069 61.1163 23.4527C61.6004 23.7984 61.8078 24.3515 61.8078 25.043C61.8078 25.527 61.6695 25.9419 61.4621 26.2184C61.2546 26.5642 60.9088 26.7716 60.4939 26.9099L61.9462 28.9842H61.0471ZM59.3183 26.4259C59.8715 26.4259 60.2864 26.2876 60.563 26.0802C60.8397 25.8727 60.978 25.527 60.978 25.043C60.978 24.6281 60.8397 24.2824 60.563 24.0058C60.2864 23.7984 59.8715 23.6601 59.3183 23.6601H57.866V26.4259H59.3183ZM55.2381 28.2236V28.9842H50.8121V22.8995H55.0998V23.6601H51.642V25.527H54.6848V26.2876H51.642V28.2236H55.2381ZM46.5245 23.6601H44.4498V22.8995H49.4982V23.6601H47.4235V28.9842H46.5936V23.6601H46.5245ZM42.4443 26.7716L41.1304 23.7984L39.8164 26.7716H42.4443Z" fill="#C4C4C4"/>
<path fill-rule="evenodd" clip-rule="evenodd" d="M104.035 13.2193H95.736L93.9991 17.2232H91.3455C93.8061 11.8203 96.2668 6.36913 98.7274 0.966216H101.14C103.6 6.36913 106.061 11.8203 108.522 17.2232H105.82L104.035 13.2193ZM62.7344 0.773254H62.6379C61.8177 0.773254 61.094 0.869735 60.322 1.0627C59.5983 1.25566 58.8746 1.49686 58.2473 1.88278C57.5719 2.22046 56.9929 2.65463 56.4622 3.18527C55.9314 3.66768 55.4972 4.24656 55.1112 4.87368C54.7252 5.50081 54.4357 6.17617 54.2427 6.89978C54.0498 7.62338 53.9533 8.34699 53.9533 9.11883V9.16708V9.3118H56.5104V9.11883C56.5104 8.53995 56.5586 8.00931 56.7034 7.47866C56.8481 6.94802 57.0411 6.46562 57.2824 6.03145C57.5236 5.59729 57.8613 5.16313 58.2473 4.82544C58.6333 4.48776 59.0193 4.15008 59.5018 3.90888C59.9843 3.66768 60.4667 3.47471 60.9975 3.32999C61.5282 3.18527 62.0589 3.13703 62.6379 3.13703C63.2169 3.13703 63.7476 3.18527 64.2783 3.32999C64.8091 3.47471 65.2915 3.66768 65.7258 3.90888C66.16 4.15008 66.5942 4.48776 66.932 4.82544C67.2697 5.16313 67.6074 5.59729 67.8487 6.03145C68.3794 6.94802 68.6206 7.96107 68.6206 9.11883V9.3118H71.1778V9.11883C71.1778 8.34699 71.0813 7.57514 70.8883 6.85154C70.6953 6.12793 70.4058 5.45257 70.0681 4.82544C69.6821 4.19832 69.2479 3.61944 68.7171 3.13703C68.1864 2.65463 67.6074 2.22046 66.9802 1.83454C66.3047 1.49686 65.6293 1.20742 64.9055 1.01446C64.2783 0.869735 63.5064 0.773254 62.7344 0.773254ZM12.8942 13.2193H4.54731L2.81038 17.2232H0.156738C2.61739 11.7721 5.07803 6.36913 7.53868 0.966216H9.95108C12.4117 6.36913 14.8724 11.8203 17.333 17.2232H14.6311L12.8942 13.2193ZM11.9775 11.0967L8.74488 3.76416L5.46402 11.0967H11.9775ZM34.2198 1.15918L27.1756 17.2232H24.7632L17.6225 0.966216H20.3727L26.0177 13.8946L31.7592 0.966216H34.3163L34.2198 1.15918ZM48.067 17.1267L44.6414 12.3027C44.4484 12.3027 44.3037 12.3027 44.1589 12.3509C43.9659 12.3509 43.8212 12.3509 43.7247 12.3509H39.9131V17.2232H37.3559V0.966216H43.7247C44.7861 0.966216 45.7029 1.11094 46.5231 1.35214C47.3433 1.59334 48.067 1.97926 48.6942 2.50991C49.3214 3.04055 49.7557 3.61944 50.0452 4.34304C50.3347 5.0184 50.4794 5.83849 50.4794 6.70682C50.4794 7.33394 50.3829 7.91283 50.2382 8.44347C50.0934 8.97411 49.8522 9.45652 49.5144 9.93892C49.225 10.3731 48.839 10.759 48.3565 11.0967C47.9705 11.3861 47.488 11.6273 47.0055 11.8203L50.8654 17.2715H48.067V17.1267ZM43.6764 10.1319C44.4002 10.1319 45.0274 10.0354 45.5581 9.89068C46.0888 9.74596 46.5231 9.50476 46.909 9.21532C47.295 8.92587 47.5363 8.53995 47.7293 8.15403C47.9223 7.71986 48.0188 7.23746 48.0188 6.65858C48.0188 5.54905 47.6328 4.68072 46.909 4.10184C46.5231 3.8124 46.0888 3.57119 45.5581 3.42647C45.0274 3.28175 44.4002 3.18527 43.6764 3.18527H39.9131V10.0836H43.6764V10.1319ZM62.6861 17.3679C61.0457 17.3679 59.5983 17.0303 58.2473 16.3066C58.0061 16.1619 57.7166 16.0172 57.4754 15.8242C57.2341 15.6795 56.9929 15.4866 56.7999 15.2936L56.5104 15.0524H68.7654L68.4759 15.2936C68.2829 15.4866 68.0417 15.6313 67.8004 15.8242C67.5592 15.969 67.318 16.1619 67.0285 16.3066C66.353 16.6443 65.6775 16.9338 64.9538 17.1267C64.2301 17.3197 63.4581 17.3679 62.6861 17.3679ZM55.1112 13.2675C54.7252 12.6404 54.4357 11.9168 54.291 11.1932L54.2427 11.0002H56.8964L56.9446 11.0967C56.9929 11.2896 57.0894 11.4344 57.1376 11.6273C57.2341 11.8203 57.2824 11.965 57.3789 12.158C57.4754 12.3027 57.5719 12.4957 57.7166 12.6404C57.8131 12.7851 57.9578 12.9298 58.0543 13.0745L58.2473 13.3157H55.1595L55.1112 13.2675ZM71.033 11.1932C70.9365 11.5791 70.8401 11.9168 70.6953 12.2545C70.5506 12.5921 70.4058 12.9298 70.2128 13.2675L70.1646 13.3157H67.0285L67.2215 13.0745C67.3662 12.9298 67.4627 12.7851 67.5592 12.6404C67.6557 12.4957 67.8004 12.3027 67.8969 12.158C67.9934 12.0133 68.0899 11.8203 68.1382 11.6273C68.2347 11.4344 68.2829 11.2896 68.3312 11.0967L68.3794 11.0002H71.033V11.1932ZM86.5689 17.1267L83.1433 12.3027C82.9503 12.3027 82.8056 12.3027 82.6608 12.3509C82.4678 12.3509 82.3231 12.3509 82.2266 12.3509H78.415V17.2232H75.8578V0.966216H82.2266C83.288 0.966216 84.2048 1.11094 85.025 1.35214C85.8452 1.59334 86.5689 1.97926 87.1961 2.50991C87.8233 3.04055 88.2576 3.61944 88.5471 4.34304C88.8366 5.0184 88.9813 5.83849 88.9813 6.70682C88.9813 7.33394 88.8848 7.91283 88.7401 8.44347C88.5953 8.97411 88.3541 9.45652 88.0163 9.93892C87.7269 10.3731 87.3409 10.759 86.8584 11.0967C86.4724 11.3861 85.9899 11.6273 85.5074 11.8203L89.3673 17.2715H86.5689V17.1267ZM82.1783 10.1319C82.9021 10.1319 83.5293 10.0354 84.06 9.89068C84.5907 9.74596 85.025 9.50476 85.4109 9.21532C85.7969 8.92587 86.0382 8.53995 86.2312 8.15403C86.4242 7.71986 86.5207 7.23746 86.5207 6.65858C86.5207 5.54905 86.1347 4.68072 85.4109 4.10184C85.025 3.8124 84.5907 3.57119 84.06 3.42647C83.5293 3.28175 82.9021 3.18527 82.1783 3.18527H78.415V10.0836H82.1783V10.1319ZM103.118 11.0967L99.8854 3.76416L96.6527 11.0967H103.118Z" fill="#292A2D"/>
</svg>
