<svg width="113" height="30" viewBox="0 0 113 30" fill="none" xmlns="http://www.w3.org/2000/svg">
<path d="M44.5636 27.585H41.2043L40.4895 29.1572H39.5604L42.4194 22.8684H43.2771L46.1361 29.1572H45.2069L44.5636 27.585ZM39.2745 22.8684L37.2017 29.1572H36.201L34.4856 24.1548L32.7702 29.1572H31.7696L29.6968 22.8684H30.626L32.3414 28.0138L34.1282 22.8684H34.9859L36.7013 28.0138L38.4167 22.8684H39.2745ZM82.231 29.1572L80.3727 26.5845L78.5143 29.1572H77.5137L79.8723 25.9414L77.5851 22.8684H78.5858L80.3727 25.2982L82.1596 22.8684H83.1602L80.9445 25.9414L83.3032 29.1572H82.231ZM75.155 22.8684H76.0842V29.1572H75.155V22.8684ZM72.0101 29.1572V24.5836L69.7229 28.3711H69.294L67.0068 24.5836V29.1572H66.1491V22.8684H66.8639L69.5085 27.2992L72.153 22.8684H72.8678V29.1572H72.0101ZM63.4331 29.1572L62.075 27.2277C61.9321 27.2277 61.7891 27.2277 61.6462 27.2277H60.0737V29.1572H59.1446V22.8684H61.5747C62.3609 22.8684 63.0042 23.0828 63.5045 23.4401C64.0049 23.7975 64.2193 24.3692 64.2193 25.0838C64.2193 25.584 64.0763 26.0128 63.8619 26.2987C63.6475 26.656 63.2901 26.8704 62.8613 27.0133L64.3622 29.1572H63.4331ZM61.6462 26.5131C62.218 26.5131 62.6468 26.3702 62.9327 26.1558C63.2186 25.9414 63.3616 25.584 63.3616 25.0838C63.3616 24.655 63.2186 24.2977 62.9327 24.0118C62.6468 23.7975 62.218 23.6545 61.6462 23.6545H60.1452V26.5131H61.6462ZM57.4291 28.3711V29.1572H52.8547V22.8684H57.2862V23.6545H53.7124V25.5841H56.8573V26.3702H53.7124V28.3711H57.4291ZM48.4233 23.6545H46.279V22.8684H51.4967V23.6545H49.3525V29.1572H48.4947V23.6545H48.4233ZM44.2062 26.8704L42.8482 23.7975L41.4902 26.8704H44.2062Z" fill="#C4C4C4"/>
<path fill-rule="evenodd" clip-rule="evenodd" d="M107.862 12.8635H99.2854L97.4902 17.0017H94.7475C97.2907 11.4176 99.8339 5.78359 102.377 0.199434H104.87C107.414 5.78359 109.957 11.4176 112.5 17.0017H109.707L107.862 12.8635ZM65.1767 0H65.077C64.2293 0 63.4813 0.099717 62.6834 0.299151C61.9354 0.498585 61.1874 0.747877 60.5392 1.14675C59.841 1.49576 59.2426 1.94448 58.6941 2.49293C58.1456 2.99151 57.6968 3.58981 57.2978 4.23797C56.8989 4.88613 56.5997 5.58415 56.4002 6.33203C56.2008 7.07991 56.101 7.82778 56.101 8.62552V8.67538V8.82495H58.744V8.62552C58.744 8.02722 58.7938 7.47878 58.9434 6.93033C59.093 6.38189 59.2925 5.8833 59.5418 5.43458C59.7912 4.98585 60.1402 4.53712 60.5392 4.18811C60.9381 3.8391 61.337 3.4901 61.8357 3.2408C62.3343 2.99151 62.833 2.79208 63.3815 2.6425C63.9301 2.49293 64.4786 2.44307 65.077 2.44307C65.6754 2.44307 66.2239 2.49293 66.7724 2.6425C67.321 2.79208 67.8196 2.99151 68.2684 3.2408C68.7172 3.4901 69.166 3.8391 69.5151 4.18811C69.8642 4.53712 70.2132 4.98585 70.4626 5.43458C71.0111 6.38189 71.2604 7.42892 71.2604 8.62552V8.82495H73.9033V8.62552C73.9033 7.82778 73.8036 7.03005 73.6042 6.28217C73.4047 5.53429 73.1055 4.83627 72.7564 4.18811C72.3575 3.53995 71.9087 2.94165 71.3602 2.44307C70.8116 1.94448 70.2132 1.49576 69.565 1.09689C68.8668 0.747878 68.1687 0.448727 67.4207 0.249293C66.7725 0.099717 65.9746 0 65.1767 0ZM13.6647 12.8635H5.03784L3.24265 17.0017H0.5C3.04319 11.3677 5.58637 5.78359 8.12956 0.199434H10.6229C13.1661 5.78359 15.7093 11.4176 18.2524 17.0017H15.4599L13.6647 12.8635ZM12.7173 10.6697L9.37622 3.09123L5.9853 10.6697H12.7173ZM35.7057 0.398868L28.4252 17.0017H25.9319L18.5516 0.199434H21.394L27.2284 13.5615L33.1625 0.199434H35.8054L35.7057 0.398868ZM50.0173 16.902L46.4768 11.9162C46.2774 11.9162 46.1278 11.9162 45.9782 11.966C45.7787 11.966 45.6291 11.966 45.5294 11.966H41.5899V17.0017H38.947V0.199434H45.5294C46.6264 0.199434 47.5739 0.34901 48.4216 0.598302C49.2693 0.847595 50.0173 1.24646 50.6656 1.79491C51.3139 2.34335 51.7627 2.94165 52.0619 3.68953C52.3611 4.38755 52.5107 5.23514 52.5107 6.1326C52.5107 6.78076 52.4109 7.37906 52.2613 7.9275C52.1117 8.47595 51.8624 8.97453 51.5133 9.47311C51.2141 9.92184 50.8152 10.3207 50.3165 10.6697C49.9176 10.9689 49.4189 11.2182 48.9203 11.4176L52.9096 17.0516H50.0173V16.902ZM45.4795 9.67255C46.2275 9.67255 46.8758 9.57283 47.4243 9.42326C47.9728 9.27368 48.4216 9.02439 48.8205 8.72524C49.2195 8.42609 49.4688 8.02722 49.6683 7.62835C49.8677 7.17962 49.9675 6.68104 49.9675 6.08274C49.9675 4.93599 49.5685 4.03854 48.8205 3.44024C48.4216 3.14109 47.9728 2.89179 47.4243 2.74222C46.8758 2.59264 46.2275 2.49293 45.4795 2.49293H41.5899V9.62269H45.4795V9.67255ZM65.1269 17.1513C63.4314 17.1513 61.9354 16.8023 60.5392 16.0544C60.2898 15.9049 59.9906 15.7553 59.7413 15.5559C59.492 15.4063 59.2426 15.2068 59.0432 15.0074L58.744 14.7581H71.41L71.1108 15.0074C70.9114 15.2068 70.662 15.3564 70.4127 15.5559C70.1634 15.7054 69.914 15.9049 69.6148 16.0544C68.9167 16.4034 68.2186 16.7026 67.4706 16.902C66.7226 17.1015 65.9247 17.1513 65.1269 17.1513ZM57.2978 12.9134C56.8989 12.2652 56.5997 11.5173 56.4501 10.7694L56.4002 10.57H59.1429L59.1928 10.6697C59.2426 10.8692 59.3424 11.0187 59.3922 11.2182C59.492 11.4176 59.5418 11.5672 59.6416 11.7666C59.7413 11.9162 59.841 12.1156 59.9906 12.2652C60.0904 12.4148 60.24 12.5643 60.3397 12.7139L60.5392 12.9632H57.3477L57.2978 12.9134ZM73.7537 10.7694C73.654 11.1683 73.5543 11.5173 73.4047 11.8663C73.2551 12.2153 73.1055 12.5643 72.906 12.9134L72.8562 12.9632H69.6148L69.8143 12.7139C69.9639 12.5643 70.0636 12.4148 70.1634 12.2652C70.2631 12.1156 70.4127 11.9162 70.5124 11.7666C70.6122 11.617 70.7119 11.4176 70.7618 11.2182C70.8615 11.0187 70.9114 10.8692 70.9612 10.6697L71.0111 10.57H73.7537V10.7694ZM89.8107 16.902L86.2702 11.9162C86.0708 11.9162 85.9212 11.9162 85.7716 11.966C85.5721 11.966 85.4225 11.966 85.3228 11.966H81.3833V17.0017H78.7404V0.199434H85.3228C86.4198 0.199434 87.3673 0.34901 88.215 0.598302C89.0627 0.847595 89.8107 1.24646 90.459 1.79491C91.1073 2.34335 91.5561 2.94165 91.8553 3.68953C92.1544 4.38755 92.3041 5.23514 92.3041 6.1326C92.3041 6.78076 92.2043 7.37906 92.0547 7.9275C91.9051 8.47595 91.6558 8.97453 91.3067 9.47311C91.0075 9.92184 90.6086 10.3207 90.1099 10.6697C89.711 10.9689 89.2123 11.2182 88.7137 11.4176L92.703 17.0516H89.8107V16.902ZM85.2729 9.67255C86.0209 9.67255 86.6691 9.57283 87.2177 9.42326C87.7662 9.27368 88.215 9.02439 88.6139 8.72524C89.0129 8.42609 89.2622 8.02722 89.4617 7.62835C89.6611 7.17962 89.7609 6.68104 89.7609 6.08274C89.7609 4.93599 89.3619 4.03854 88.6139 3.44024C88.215 3.14109 87.7662 2.89179 87.2177 2.74222C86.6691 2.59264 86.0209 2.49293 85.2729 2.49293H81.3833V9.62269H85.2729V9.67255ZM106.915 10.6697L103.574 3.09123L100.233 10.6697H106.915Z" fill="white"/>
</svg>
