<svg width="158" height="40" viewBox="0 0 158 40" fill="none" xmlns="http://www.w3.org/2000/svg">
<path d="M102.911 37.599H98.2108L97.2108 39.7986H95.9108L99.9108 31H101.111L105.111 39.7986H103.811L102.911 37.599ZM95.5108 31L92.6108 39.7986H91.2108L88.8108 32.7997L86.4108 39.7986H85.0108L82.1108 31H83.4108L85.8108 38.1989L88.3108 31H89.5108L91.9108 38.1989L94.3108 31H95.5108ZM155.611 39.7986L153.011 36.1992L150.411 39.7986H149.011L152.311 35.2993L149.111 31H150.511L153.011 34.3995L155.511 31H156.911L153.811 35.2993L157.111 39.7986H155.611ZM145.711 31H147.011V39.7986H145.711V31ZM141.311 39.7986V33.3996L138.111 38.6988H137.511L134.311 33.3996V39.7986H133.111V31H134.111L137.811 37.199L141.511 31H142.511V39.7986H141.311ZM129.311 39.7986L127.411 37.099C127.211 37.099 127.011 37.099 126.811 37.099H124.611V39.7986H123.311V31H126.711C127.811 31 128.711 31.3 129.411 31.7999C130.111 32.2998 130.411 33.0997 130.411 34.0995C130.411 34.7994 130.211 35.3993 129.911 35.7992C129.611 36.2992 129.111 36.5991 128.511 36.7991L130.611 39.7986H129.311ZM126.811 36.0992C127.611 36.0992 128.211 35.8992 128.611 35.5993C129.011 35.2993 129.211 34.7994 129.211 34.0995C129.211 33.4996 129.011 32.9997 128.611 32.5997C128.211 32.2998 127.611 32.0998 126.811 32.0998H124.711V36.0992H126.811ZM120.911 38.6988V39.7986H114.511V31H120.711V32.0998H115.711V34.7994H120.111V35.8992H115.711V38.6988H120.911ZM108.311 32.0998H105.311V31H112.611V32.0998H109.611V39.7986H108.411V32.0998H108.311ZM102.411 36.5991L100.511 32.2998L98.6108 36.5991H102.411Z" fill="#C4C4C4"/>
<path fill-rule="evenodd" clip-rule="evenodd" d="M150.622 17.9971H138.622L136.111 23.7869H132.274C135.832 15.9742 139.39 8.09174 142.948 0.279026H146.436C149.994 8.09174 153.553 15.9742 157.111 23.7869H153.204L150.622 17.9971ZM90.9015 0H90.7619C89.5759 0 88.5294 0.139513 87.4131 0.418538C86.3666 0.697564 85.3201 1.04635 84.4131 1.6044C83.4363 2.09269 82.5991 2.7205 81.8317 3.48782C81.0642 4.18538 80.4363 5.02246 79.8782 5.92929C79.3201 6.83613 78.9015 7.81271 78.6224 8.85906C78.3433 9.90541 78.2038 10.9518 78.2038 12.0679V12.1376V12.3469H81.9015V12.0679C81.9015 11.2308 81.9712 10.4635 82.1805 9.69614C82.3898 8.92882 82.6689 8.23125 83.0177 7.60345C83.3666 6.97564 83.8549 6.34783 84.4131 5.85954C84.9712 5.37124 85.5294 4.88295 86.227 4.53416C86.9247 4.18538 87.6224 3.90636 88.3898 3.69709C89.1573 3.48782 89.9247 3.41806 90.7619 3.41806C91.5991 3.41806 92.3666 3.48782 93.134 3.69709C93.9015 3.90636 94.5991 4.18538 95.227 4.53416C95.8549 4.88295 96.4828 5.37124 96.9712 5.85954C97.4596 6.34783 97.948 6.97564 98.2968 7.60345C99.0642 8.92882 99.4131 10.3937 99.4131 12.0679V12.3469H103.111V12.0679C103.111 10.9518 102.971 9.83565 102.692 8.7893C102.413 7.74296 101.994 6.76637 101.506 5.85954C100.948 4.9527 100.32 4.11563 99.5526 3.41806C98.7852 2.7205 97.948 2.09269 97.041 1.53464C96.0642 1.04635 95.0875 0.627807 94.041 0.348782C93.134 0.139513 92.0177 0 90.9015 0ZM18.8317 17.9971H6.76192L4.2503 23.7869H0.413086C3.97123 15.9045 7.52937 8.09174 11.0875 0.279026H14.5759C18.134 8.09174 21.6922 15.9742 25.2503 23.7869H21.3433L18.8317 17.9971ZM17.5061 14.9279L12.8317 4.3249L8.0875 14.9279H17.5061ZM49.6689 0.558051L39.4829 23.7869H35.9945L25.6689 0.279026H29.6456L37.8084 18.9737L46.1108 0.279026H49.8084L49.6689 0.558051ZM69.6922 23.6474L64.7387 16.6718C64.4596 16.6718 64.2503 16.6718 64.041 16.7415C63.7619 16.7415 63.5526 16.7415 63.4131 16.7415H57.9015V23.7869H54.2038V0.279026H63.4131C64.948 0.279026 66.2735 0.488295 67.4596 0.837077C68.6456 1.18586 69.6922 1.74391 70.5991 2.51123C71.5061 3.27855 72.134 4.11563 72.5526 5.16197C72.9712 6.13856 73.1805 7.32442 73.1805 8.58004C73.1805 9.48687 73.041 10.3239 72.8317 11.0913C72.6224 11.8586 72.2736 12.5561 71.7852 13.2537C71.3666 13.8815 70.8084 14.4396 70.1108 14.9279C69.5526 15.3464 68.8549 15.6952 68.1573 15.9742L73.7387 23.8567H69.6922V23.6474ZM63.3433 13.5327C64.3898 13.5327 65.2968 13.3932 66.0642 13.184C66.8317 12.9747 67.4596 12.6259 68.0177 12.2074C68.5759 11.7888 68.9247 11.2308 69.2038 10.6727C69.4828 10.0449 69.6224 9.34735 69.6224 8.51028C69.6224 6.90588 69.0642 5.65027 68.0177 4.81319C67.4596 4.39465 66.8317 4.04587 66.0642 3.8366C65.2968 3.62733 64.3898 3.48782 63.3433 3.48782H57.9015V13.463H63.3433V13.5327ZM90.8317 23.9962C88.4596 23.9962 86.3666 23.5079 84.4131 22.4616C84.0642 22.2523 83.6456 22.043 83.2968 21.764C82.948 21.5547 82.5991 21.2757 82.3201 20.9967L81.9015 20.6479H99.6224L99.2038 20.9967C98.9247 21.2757 98.5759 21.485 98.227 21.764C97.8782 21.9733 97.5294 22.2523 97.1108 22.4616C96.134 22.9499 95.1573 23.3684 94.1108 23.6474C93.0642 23.9264 91.948 23.9962 90.8317 23.9962ZM79.8782 18.0669C79.3201 17.1601 78.9015 16.1137 78.6922 15.0674L78.6224 14.7884H82.4596L82.5294 14.9279C82.5991 15.2069 82.7387 15.4162 82.8084 15.6952C82.948 15.9742 83.0177 16.1835 83.1573 16.4625C83.2968 16.6718 83.4363 16.9508 83.6456 17.1601C83.7852 17.3693 83.9945 17.5786 84.134 17.7879L84.4131 18.1367H79.948L79.8782 18.0669ZM102.901 15.0674C102.762 15.6254 102.622 16.1137 102.413 16.602C102.204 17.0903 101.994 17.5786 101.715 18.0669L101.646 18.1367H97.1108L97.3898 17.7879C97.5991 17.5786 97.7387 17.3693 97.8782 17.1601C98.0177 16.9508 98.227 16.6718 98.3666 16.4625C98.5061 16.2532 98.6456 15.9742 98.7154 15.6952C98.8549 15.4162 98.9247 15.2069 98.9945 14.9279L99.0642 14.7884H102.901V15.0674ZM125.367 23.6474L120.413 16.6718C120.134 16.6718 119.925 16.6718 119.715 16.7415C119.436 16.7415 119.227 16.7415 119.088 16.7415H113.576V23.7869H109.878V0.279026H119.088C120.622 0.279026 121.948 0.488295 123.134 0.837077C124.32 1.18586 125.367 1.74391 126.274 2.51123C127.181 3.27855 127.808 4.11563 128.227 5.16197C128.646 6.13856 128.855 7.32442 128.855 8.58004C128.855 9.48687 128.715 10.3239 128.506 11.0913C128.297 11.8586 127.948 12.5561 127.46 13.2537C127.041 13.8815 126.483 14.4396 125.785 14.9279C125.227 15.3464 124.529 15.6952 123.832 15.9742L129.413 23.8567H125.367V23.6474ZM119.018 13.5327C120.064 13.5327 120.971 13.3932 121.739 13.184C122.506 12.9747 123.134 12.6259 123.692 12.2074C124.25 11.7888 124.599 11.2308 124.878 10.6727C125.157 10.0449 125.297 9.34735 125.297 8.51028C125.297 6.90588 124.739 5.65027 123.692 4.81319C123.134 4.39465 122.506 4.04587 121.739 3.8366C120.971 3.62733 120.064 3.48782 119.018 3.48782H113.576V13.463H119.018V13.5327ZM149.297 14.9279L144.622 4.3249L139.948 14.9279H149.297Z" fill="#292A2D"/>
</svg>
