<svg width="109" height="29" viewBox="0 0 109 29" fill="none" xmlns="http://www.w3.org/2000/svg">
<path opacity="0.6" d="M42.7901 27.463H39.5398L38.8482 28.9841H37.9492L40.7154 22.8994H41.5453L44.3115 28.9841H43.4125L42.7901 27.463ZM37.6726 22.8994L35.6671 28.9841H34.6989L33.0392 24.144L31.3794 28.9841H30.4113L28.4058 22.8994H29.3048L30.9645 27.8778L32.6934 22.8994H33.5233L35.183 27.8778L36.8427 22.8994H37.6726ZM79.235 28.9841L77.437 26.4949L75.6389 28.9841H74.6708L76.9529 25.8726L74.7399 22.8994H75.7081L77.437 25.2503L79.1659 22.8994H80.134L77.9902 25.8726L80.2724 28.9841H79.235ZM72.3886 22.8994H73.2877V28.9841H72.3886V22.8994ZM69.3458 28.9841V24.5589L67.1328 28.2235H66.7179L64.5049 24.5589V28.9841H63.675V22.8994H64.3666L66.9254 27.1864L69.4841 22.8994H70.1757V28.9841H69.3458ZM61.0471 28.9841L59.7332 27.1172C59.5949 27.1172 59.4566 27.1172 59.3183 27.1172H57.7968V28.9841H56.8978V22.8994H59.2491C60.0098 22.8994 60.6322 23.1068 61.1163 23.4526C61.6004 23.7983 61.8078 24.3514 61.8078 25.0429C61.8078 25.5269 61.6695 25.9418 61.4621 26.2184C61.2546 26.5641 60.9088 26.7715 60.4939 26.9098L61.9462 28.9841H61.0471ZM59.3183 26.4258C59.8715 26.4258 60.2864 26.2875 60.563 26.0801C60.8397 25.8726 60.978 25.5269 60.978 25.0429C60.978 24.628 60.8397 24.2823 60.563 24.0057C60.2864 23.7983 59.8715 23.66 59.3183 23.66H57.866V26.4258H59.3183ZM55.2381 28.2235V28.9841H50.8121V22.8994H55.0998V23.66H51.642V25.5269H54.6848V26.2875H51.642V28.2235H55.2381ZM46.5245 23.66H44.4498V22.8994H49.4982V23.66H47.4235V28.9841H46.5936V23.66H46.5245ZM42.4443 26.7715L41.1304 23.7983L39.8164 26.7715H42.4443Z" fill="white"/>
<path fill-rule="evenodd" clip-rule="evenodd" d="M104.035 13.2192H95.736L93.9991 17.2232H91.3455C93.8061 11.8202 96.2668 6.36907 98.7274 0.966155H101.14C103.6 6.36907 106.061 11.8202 108.522 17.2232H105.82L104.035 13.2192ZM62.7344 0.773193H62.6379C61.8177 0.773193 61.094 0.869674 60.322 1.06264C59.5983 1.2556 58.8746 1.4968 58.2473 1.88272C57.5719 2.2204 56.9929 2.65457 56.4622 3.18521C55.9314 3.66761 55.4972 4.2465 55.1112 4.87362C54.7252 5.50075 54.4357 6.17611 54.2427 6.89972C54.0498 7.62332 53.9533 8.34693 53.9533 9.11877V9.16701V9.31174H56.5104V9.11877C56.5104 8.53989 56.5586 8.00925 56.7034 7.4786C56.8481 6.94796 57.0411 6.46555 57.2824 6.03139C57.5236 5.59723 57.8613 5.16306 58.2473 4.82538C58.6333 4.4877 59.0193 4.15002 59.5018 3.90882C59.9843 3.66761 60.4667 3.47465 60.9975 3.32993C61.5282 3.18521 62.0589 3.13697 62.6379 3.13697C63.2169 3.13697 63.7476 3.18521 64.2783 3.32993C64.8091 3.47465 65.2915 3.66761 65.7258 3.90882C66.16 4.15002 66.5942 4.4877 66.932 4.82538C67.2697 5.16306 67.6074 5.59723 67.8487 6.03139C68.3794 6.94796 68.6206 7.961 68.6206 9.11877V9.31174H71.1778V9.11877C71.1778 8.34693 71.0813 7.57508 70.8883 6.85148C70.6953 6.12787 70.4058 5.45251 70.0681 4.82538C69.6821 4.19826 69.2479 3.61937 68.7171 3.13697C68.1864 2.65457 67.6074 2.2204 66.9802 1.83448C66.3047 1.4968 65.6293 1.20736 64.9055 1.0144C64.2783 0.869674 63.5064 0.773193 62.7344 0.773193ZM12.8942 13.2192H4.54731L2.81038 17.2232H0.156738C2.61739 11.772 5.07803 6.36907 7.53868 0.966155H9.95108C12.4117 6.36907 14.8724 11.8202 17.333 17.2232H14.6311L12.8942 13.2192ZM11.9775 11.0966L8.74488 3.76409L5.46402 11.0966H11.9775ZM34.2198 1.15912L27.1756 17.2232H24.7632L17.6225 0.966155H20.3727L26.0177 13.8946L31.7592 0.966155H34.3163L34.2198 1.15912ZM48.067 17.1267L44.6414 12.3026C44.4484 12.3026 44.3037 12.3026 44.1589 12.3509C43.9659 12.3509 43.8212 12.3509 43.7247 12.3509H39.9131V17.2232H37.3559V0.966155H43.7247C44.7861 0.966155 45.7029 1.11088 46.5231 1.35208C47.3433 1.59328 48.067 1.9792 48.6942 2.50985C49.3214 3.04049 49.7557 3.61937 50.0452 4.34298C50.3347 5.01834 50.4794 5.83843 50.4794 6.70676C50.4794 7.33388 50.3829 7.91276 50.2382 8.44341C50.0934 8.97405 49.8522 9.45646 49.5144 9.93886C49.225 10.373 48.839 10.7589 48.3565 11.0966C47.9705 11.3861 47.488 11.6273 47.0055 11.8202L50.8654 17.2714H48.067V17.1267ZM43.6764 10.1318C44.4002 10.1318 45.0274 10.0353 45.5581 9.89062C46.0888 9.7459 46.5231 9.5047 46.909 9.21525C47.295 8.92581 47.5363 8.53989 47.7293 8.15397C47.9223 7.7198 48.0188 7.2374 48.0188 6.65852C48.0188 5.54899 47.6328 4.68066 46.909 4.10178C46.5231 3.81234 46.0888 3.57113 45.5581 3.42641C45.0274 3.28169 44.4002 3.18521 43.6764 3.18521H39.9131V10.0836H43.6764V10.1318ZM62.6861 17.3679C61.0457 17.3679 59.5983 17.0302 58.2473 16.3066C58.0061 16.1619 57.7166 16.0171 57.4754 15.8242C57.2341 15.6795 56.9929 15.4865 56.7999 15.2935L56.5104 15.0523H68.7654L68.4759 15.2935C68.2829 15.4865 68.0417 15.6312 67.8004 15.8242C67.5592 15.9689 67.318 16.1619 67.0285 16.3066C66.353 16.6443 65.6775 16.9337 64.9538 17.1267C64.2301 17.3196 63.4581 17.3679 62.6861 17.3679ZM55.1112 13.2674C54.7252 12.6403 54.4357 11.9167 54.291 11.1931L54.2427 11.0001H56.8964L56.9446 11.0966C56.9929 11.2896 57.0894 11.4343 57.1376 11.6273C57.2341 11.8202 57.2824 11.965 57.3789 12.1579C57.4754 12.3026 57.5719 12.4956 57.7166 12.6403C57.8131 12.785 57.9578 12.9298 58.0543 13.0745L58.2473 13.3157H55.1595L55.1112 13.2674ZM71.033 11.1931C70.9365 11.579 70.8401 11.9167 70.6953 12.2544C70.5506 12.5921 70.4058 12.9298 70.2128 13.2674L70.1646 13.3157H67.0285L67.2215 13.0745C67.3662 12.9298 67.4627 12.785 67.5592 12.6403C67.6557 12.4956 67.8004 12.3026 67.8969 12.1579C67.9934 12.0132 68.0899 11.8202 68.1382 11.6273C68.2347 11.4343 68.2829 11.2896 68.3312 11.0966L68.3794 11.0001H71.033V11.1931ZM86.5689 17.1267L83.1433 12.3026C82.9503 12.3026 82.8056 12.3026 82.6608 12.3509C82.4678 12.3509 82.3231 12.3509 82.2266 12.3509H78.415V17.2232H75.8578V0.966155H82.2266C83.288 0.966155 84.2048 1.11088 85.025 1.35208C85.8452 1.59328 86.5689 1.9792 87.1961 2.50985C87.8233 3.04049 88.2576 3.61937 88.5471 4.34298C88.8366 5.01834 88.9813 5.83843 88.9813 6.70676C88.9813 7.33388 88.8848 7.91276 88.7401 8.44341C88.5953 8.97405 88.3541 9.45646 88.0163 9.93886C87.7269 10.373 87.3409 10.7589 86.8584 11.0966C86.4724 11.3861 85.9899 11.6273 85.5074 11.8202L89.3673 17.2714H86.5689V17.1267ZM82.1783 10.1318C82.9021 10.1318 83.5293 10.0353 84.06 9.89062C84.5907 9.7459 85.025 9.5047 85.4109 9.21525C85.7969 8.92581 86.0382 8.53989 86.2312 8.15397C86.4242 7.7198 86.5207 7.2374 86.5207 6.65852C86.5207 5.54899 86.1347 4.68066 85.4109 4.10178C85.025 3.81234 84.5907 3.57113 84.06 3.42641C83.5293 3.28169 82.9021 3.18521 82.1783 3.18521H78.415V10.0836H82.1783V10.1318ZM103.118 11.0966L99.8854 3.76409L96.6527 11.0966H103.118Z" fill="white"/>
</svg>
