<svg width="157" height="41" viewBox="0 0 157 41" fill="none" xmlns="http://www.w3.org/2000/svg">
<path d="M102.498 38.6H97.7978L96.7978 40.8H95.4978L99.4978 32H100.698L104.698 40.8H103.398L102.498 38.6ZM95.0978 32L92.1978 40.8H90.7978L88.3978 33.8L85.9978 40.8H84.5978L81.6978 32H82.9978L85.3978 39.2L87.8978 32H89.0978L91.4978 39.2L93.8978 32H95.0978ZM155.198 40.8L152.598 37.2L149.998 40.8H148.598L151.898 36.3L148.698 32H150.098L152.598 35.4L155.098 32H156.498L153.398 36.3L156.698 40.8H155.198ZM145.298 32H146.598V40.8H145.298V32ZM140.898 40.8V34.4L137.698 39.7H137.098L133.898 34.4V40.8H132.698V32H133.698L137.398 38.2L141.098 32H142.098V40.8H140.898ZM128.898 40.8L126.998 38.1C126.798 38.1 126.598 38.1 126.398 38.1H124.198V40.8H122.898V32H126.298C127.398 32 128.298 32.3 128.998 32.8C129.698 33.3 129.998 34.1 129.998 35.1C129.998 35.8 129.798 36.4 129.498 36.8C129.198 37.3 128.698 37.6 128.098 37.8L130.198 40.8H128.898ZM126.398 37.1C127.198 37.1 127.798 36.9 128.198 36.6C128.598 36.3 128.798 35.8 128.798 35.1C128.798 34.5 128.598 34 128.198 33.6C127.798 33.3 127.198 33.1 126.398 33.1H124.298V37.1H126.398ZM120.498 39.7V40.8H114.098V32H120.298V33.1H115.298V35.8H119.698V36.9H115.298V39.7H120.498ZM107.898 33.1H104.898V32H112.198V33.1H109.198V40.8H107.998V33.1H107.898ZM101.998 37.6L100.098 33.3L98.1978 37.6H101.998Z" fill="#C4C4C4"/>
<path fill-rule="evenodd" clip-rule="evenodd" d="M150.209 18H138.209L135.698 23.7907H131.86C135.419 15.9767 138.977 8.09302 142.535 0.27907H146.023C149.581 8.09302 153.14 15.9767 156.698 23.7907H152.791L150.209 18ZM90.4884 0H90.3488C89.1628 0 88.1163 0.139535 87 0.418605C85.9535 0.697674 84.907 1.04651 84 1.60465C83.0233 2.09302 82.186 2.72093 81.4186 3.48837C80.6512 4.18605 80.0233 5.02326 79.4651 5.93023C78.907 6.83721 78.4884 7.81395 78.2093 8.86047C77.9302 9.90698 77.7907 10.9535 77.7907 12.0698V12.1395V12.3488H81.4884V12.0698C81.4884 11.2326 81.5581 10.4651 81.7674 9.69767C81.9767 8.93023 82.2558 8.23256 82.6047 7.60465C82.9535 6.97674 83.4419 6.34884 84 5.86046C84.5581 5.37209 85.1163 4.88372 85.8139 4.53488C86.5116 4.18605 87.2093 3.90698 87.9767 3.69767C88.7442 3.48837 89.5116 3.4186 90.3488 3.4186C91.186 3.4186 91.9535 3.48837 92.7209 3.69767C93.4884 3.90698 94.186 4.18605 94.8139 4.53488C95.4419 4.88372 96.0698 5.37209 96.5581 5.86046C97.0465 6.34884 97.5349 6.97674 97.8837 7.60465C98.6512 8.93023 99 10.3953 99 12.0698V12.3488H102.698V12.0698C102.698 10.9535 102.558 9.83721 102.279 8.7907C102 7.74419 101.581 6.76744 101.093 5.86046C100.535 4.95349 99.907 4.11628 99.1395 3.4186C98.3721 2.72093 97.5349 2.09302 96.6279 1.53488C95.6512 1.04651 94.6744 0.627907 93.6279 0.348837C92.7209 0.139535 91.6046 0 90.4884 0ZM18.4186 18H6.34884L3.83721 23.7907H0C3.55814 15.907 7.11628 8.09302 10.6744 0.27907H14.1628C17.7209 8.09302 21.2791 15.9767 24.8372 23.7907H20.9302L18.4186 18ZM17.093 14.9302L12.4186 4.32558L7.67442 14.9302H17.093ZM49.2558 0.55814L39.0698 23.7907H35.5814L25.2558 0.27907H29.2326L37.3953 18.9767L45.6977 0.27907H49.3953L49.2558 0.55814ZM69.2791 23.6512L64.3256 16.6744C64.0465 16.6744 63.8372 16.6744 63.6279 16.7442C63.3488 16.7442 63.1395 16.7442 63 16.7442H57.4884V23.7907H53.7907V0.27907H63C64.5349 0.27907 65.8605 0.488372 67.0465 0.837209C68.2326 1.18605 69.2791 1.74419 70.186 2.51163C71.093 3.27907 71.7209 4.11628 72.1395 5.16279C72.5581 6.13953 72.7674 7.32558 72.7674 8.5814C72.7674 9.48837 72.6279 10.3256 72.4186 11.093C72.2093 11.8605 71.8605 12.5581 71.3721 13.2558C70.9535 13.8837 70.3953 14.4419 69.6977 14.9302C69.1395 15.3488 68.4419 15.6977 67.7442 15.9767L73.3256 23.8605H69.2791V23.6512ZM62.9302 13.5349C63.9767 13.5349 64.8837 13.3953 65.6512 13.186C66.4186 12.9767 67.0465 12.6279 67.6047 12.2093C68.1628 11.7907 68.5116 11.2326 68.7907 10.6744C69.0698 10.0465 69.2093 9.34884 69.2093 8.51163C69.2093 6.90698 68.6512 5.65116 67.6047 4.81395C67.0465 4.39535 66.4186 4.04651 65.6512 3.83721C64.8837 3.62791 63.9767 3.48837 62.9302 3.48837H57.4884V13.4651H62.9302V13.5349ZM90.4186 24C88.0465 24 85.9535 23.5116 84 22.4651C83.6512 22.2558 83.2326 22.0465 82.8837 21.7674C82.5349 21.5581 82.186 21.2791 81.907 21L81.4884 20.6512H99.2093L98.7907 21C98.5116 21.2791 98.1628 21.4884 97.8139 21.7674C97.4651 21.9767 97.1163 22.2558 96.6977 22.4651C95.7209 22.9535 94.7442 23.3721 93.6977 23.6512C92.6512 23.9302 91.5349 24 90.4186 24ZM79.4651 18.0698C78.907 17.1628 78.4884 16.1163 78.2791 15.0698L78.2093 14.7907H82.0465L82.1163 14.9302C82.186 15.2093 82.3256 15.4186 82.3953 15.6977C82.5349 15.9767 82.6046 16.186 82.7442 16.4651C82.8837 16.6744 83.0233 16.9535 83.2326 17.1628C83.3721 17.3721 83.5814 17.5814 83.7209 17.7907L84 18.1395H79.5349L79.4651 18.0698ZM102.488 15.0698C102.349 15.6279 102.209 16.1163 102 16.6047C101.791 17.093 101.581 17.5814 101.302 18.0698L101.233 18.1395H96.6977L96.9767 17.7907C97.186 17.5814 97.3256 17.3721 97.4651 17.1628C97.6046 16.9535 97.8139 16.6744 97.9535 16.4651C98.093 16.2558 98.2326 15.9767 98.3023 15.6977C98.4419 15.4186 98.5116 15.2093 98.5814 14.9302L98.6512 14.7907H102.488V15.0698ZM124.953 23.6512L120 16.6744C119.721 16.6744 119.512 16.6744 119.302 16.7442C119.023 16.7442 118.814 16.7442 118.674 16.7442H113.163V23.7907H109.465V0.27907H118.674C120.209 0.27907 121.535 0.488372 122.721 0.837209C123.907 1.18605 124.953 1.74419 125.86 2.51163C126.767 3.27907 127.395 4.11628 127.814 5.16279C128.233 6.13953 128.442 7.32558 128.442 8.5814C128.442 9.48837 128.302 10.3256 128.093 11.093C127.884 11.8605 127.535 12.5581 127.047 13.2558C126.628 13.8837 126.07 14.4419 125.372 14.9302C124.814 15.3488 124.116 15.6977 123.419 15.9767L129 23.8605H124.953V23.6512ZM118.605 13.5349C119.651 13.5349 120.558 13.3953 121.326 13.186C122.093 12.9767 122.721 12.6279 123.279 12.2093C123.837 11.7907 124.186 11.2326 124.465 10.6744C124.744 10.0465 124.884 9.34884 124.884 8.51163C124.884 6.90698 124.326 5.65116 123.279 4.81395C122.721 4.39535 122.093 4.04651 121.326 3.83721C120.558 3.62791 119.651 3.48837 118.605 3.48837H113.163V13.4651H118.605V13.5349ZM148.884 14.9302L144.209 4.32558L139.535 14.9302H148.884Z" fill="url(#paint0_linear)"/>
<defs>
<linearGradient id="paint0_linear" x1="78.3488" y1="0" x2="78.3488" y2="24.7343" gradientUnits="userSpaceOnUse">
<stop stop-color="#FB6157"/>
<stop offset="1" stop-color="#FE990D"/>
</linearGradient>
</defs>
</svg>
